<?xml version="1.0" encoding="UTF-8" standalone="no"?>
<!-- Created with Inkscape (http://www.inkscape.org/) -->

<svg
   xmlns:osb="http://www.openswatchbook.org/uri/2009/osb"
   xmlns:dc="http://purl.org/dc/elements/1.1/"
   xmlns:cc="http://creativecommons.org/ns#"
   xmlns:rdf="http://www.w3.org/1999/02/22-rdf-syntax-ns#"
   xmlns:svg="http://www.w3.org/2000/svg"
   xmlns="http://www.w3.org/2000/svg"
   xmlns:sodipodi="http://sodipodi.sourceforge.net/DTD/sodipodi-0.dtd"
   xmlns:inkscape="http://www.inkscape.org/namespaces/inkscape"
   width="96"
   height="96"
   viewBox="0 0 96.000001 96.000002"
   id="svg2"
   version="1.1"
   inkscape:version="0.91 r13725"
   sodipodi:docname="logo.svg">
  <defs
     id="defs4">
    <linearGradient
       id="linearGradient5581"
       osb:paint="solid">
      <stop
         style="stop-color:#000000;stop-opacity:1;"
         offset="0"
         id="stop5583" />
    </linearGradient>
    <linearGradient
       id="linearGradient4334"
       osb:paint="solid">
      <stop
         style="stop-color:#000000;stop-opacity:1;"
         offset="0"
         id="stop4336" />
    </linearGradient>
  </defs>
  <sodipodi:namedview
     id="base"
     pagecolor="#ffffff"
     bordercolor="#666666"
     borderopacity="1.0"
     inkscape:pageopacity="0.0"
     inkscape:pageshadow="2"
     inkscape:zoom="3.959798"
     inkscape:cx="44.657254"
     inkscape:cy="45.758841"
     inkscape:document-units="px"
     inkscape:current-layer="layer1"
     showgrid="false"
     units="px"
     inkscape:window-width="1313"
     inkscape:window-height="744"
     inkscape:window-x="53"
     inkscape:window-y="24"
     inkscape:window-maximized="1">
    <inkscape:grid
       type="xygrid"
       id="grid3344" />
  </sodipodi:namedview>
  <metadata
     id="metadata7">
    <rdf:RDF>
      <cc:Work
         rdf:about="">
        <dc:format>image/svg+xml</dc:format>
        <dc:type
           rdf:resource="http://purl.org/dc/dcmitype/StillImage" />
        <dc:title />
      </cc:Work>
    </rdf:RDF>
  </metadata>
  <g
     inkscape:label="Layer 1"
     inkscape:groupmode="layer"
     id="layer1"
     transform="translate(0,-956.36216)">
    <path
       style="fill:#222222;fill-opacity:1;stroke:none;stroke-width:0;stroke-miterlimit:4;stroke-dasharray:none;stroke-opacity:1"
       id="path3367"
       sodipodi:type="arc"
       sodipodi:cx="48"
       sodipodi:cy="1004.3622"
       sodipodi:rx="45"
       sodipodi:ry="45"
       sodipodi:start="0"
       sodipodi:end="6.2822079"
       sodipodi:open="true"
       d="m 93,1004.3622 a 45,45 0 0 1 -44.989004,45 45,45 0 0 1 -45.0109906,-44.978 45,45 0 0 1 44.9670076,-45.02201 45,45 0 0 1 45.032966,44.95601" />
    <g
       id="g4297"
       transform="matrix(0.96685172,0,0,0.9643364,17.999352,974.31477)"
       style="fill:#f6f6f6;fill-opacity:1;stroke:#f6f6f6;stroke-width:30.44760335;stroke-miterlimit:30;stroke-dasharray:none;stroke-opacity:1;stroke-linejoin:miter;stroke-linecap:butt;stroke-dashoffset:0">
      <path
         id="path4285"
         d="m 62.17,32.223 0,-2.131 -3.116,-1.82 -0.264,-1.905 2.513,-2.589 -0.575,-2.051 -3.493,-0.915 -0.767,-1.765 1.719,-3.17 -1.105,-1.817 -3.609,0.061 -1.216,-1.493 0.8,-3.515 L 51.5,7.66 48.044,8.692 46.469,7.582 46.293,3.98 44.401,3.003 41.347,4.926 39.535,4.281 38.391,0.866 36.309,0.434 33.887,3.108 31.97,2.979 29.946,0 27.826,0.146 26.215,3.372 24.33,3.763 21.58,1.444 19.576,2.155 18.898,5.696 17.186,6.58 l -3.27,-1.491 -1.742,1.227 0.301,3.591 -1.406,1.313 -3.553,-0.553 -1.344,1.652 1.258,3.375 -1,1.644 -3.57,0.431 -0.849,1.952 2.122,2.906 -0.52,1.852 L 0.289,25.86 0,27.969 l 2.827,2.225 0,1.926 -2.827,2.224 0.289,2.107 3.324,1.381 0.52,1.854 -2.122,2.908 0.849,1.952 3.57,0.429 1,1.646 -1.258,3.374 1.344,1.651 3.553,-0.553 1.406,1.313 -0.301,3.592 1.742,1.228 3.27,-1.493 1.713,0.885 0.678,3.54 2.004,0.713 2.75,-2.32 1.885,0.393 1.611,3.226 2.12,0.145 2.023,-2.979 1.919,-0.131 2.422,2.674 2.082,-0.432 1.144,-3.415 1.812,-0.645 3.054,1.923 1.892,-0.979 0.175,-3.597 1.575,-1.112 3.456,1.033 1.557,-1.454 -0.8,-3.515 1.216,-1.493 3.609,0.062 1.105,-1.818 -1.719,-3.17 0.767,-1.765 3.493,-0.913 0.575,-2.051 -2.513,-2.59 0.264,-1.908 3.115,-1.817 z M 31.008,57.545 C 16.457,57.545 4.619,45.707 4.619,31.156 4.619,16.605 16.457,4.768 31.008,4.768 c 14.55,0 26.388,11.838 26.388,26.389 0,14.551 -11.838,26.388 -26.388,26.388 z"
         inkscape:connector-curvature="0"
         style="fill:#f6f6f6;fill-opacity:1;stroke:#f6f6f6;stroke-width:30.44760335;stroke-miterlimit:30;stroke-dasharray:none;stroke-opacity:1;stroke-linejoin:miter;stroke-linecap:butt;stroke-dashoffset:0" />
    </g>
  </g>
</svg>
